<svg width="579" height="176" viewBox="0 0 579 176" fill="none" xmlns="http://www.w3.org/2000/svg">
<path d="M10.4828 165.528V69.7309C10.4828 67.473 11.343 65.484 13.0632 63.7637C14.7835 62.0434 16.8263 61.1833 19.1917 61.1833H50.3176C66.015 60.9683 79.132 66.2903 89.6686 77.1495C100.313 87.9011 105.527 101.394 105.312 117.629C105.527 133.864 100.313 147.411 89.6686 158.271C79.132 169.022 66.015 174.29 50.3176 174.075H19.1917C16.8263 174.075 14.7835 173.215 13.0632 171.495C11.343 169.775 10.4828 167.786 10.4828 165.528ZM27.5779 77.9558V157.303H48.5436C60.3704 157.303 69.9394 153.647 77.2505 146.336C84.5616 138.81 88.2171 129.241 88.2171 117.629C88.2171 105.91 84.5616 96.3949 77.2505 89.0838C70.0469 81.6652 60.4779 77.9558 48.5436 77.9558H27.5779ZM114.642 133.273C114.642 124.134 116.9 116.017 121.416 108.921C126.039 101.824 132.167 96.7712 139.801 93.7607C144.962 91.6104 150.338 90.5353 155.928 90.5353H156.412C164.046 90.6428 170.766 92.4168 176.572 95.8573C182.377 99.2978 186.947 103.867 190.28 109.566C192.43 113.114 193.882 116.877 194.634 120.855C195.172 123.543 195.441 125.854 195.441 127.79C195.441 128.972 195.333 130.639 195.118 132.789C194.258 137.842 191.409 140.369 186.571 140.369H131.737C133.135 146.282 136.199 151.013 140.93 154.561C145.661 158.002 151.52 159.722 158.509 159.722C165.82 159.722 172.271 157.464 177.862 152.948C179.475 151.658 181.302 150.906 183.345 150.691H183.829C185.549 150.691 187.001 151.121 188.183 151.981C190.226 153.809 191.409 155.851 191.731 158.109C192.054 160.26 190.979 162.625 188.506 165.205C180.55 172.194 170.497 175.688 158.348 175.688C145.123 175.688 134.533 171.71 126.577 163.754C118.62 155.583 114.642 145.422 114.642 133.273ZM131.737 125.693H178.668C178.131 119.887 175.819 115.264 171.733 111.823C167.755 108.275 162.648 106.501 156.412 106.501C150.284 106.501 144.962 108.275 140.446 111.823C136.038 115.264 133.135 119.887 131.737 125.693ZM211.918 166.496V60.6995C211.918 58.3341 212.725 56.3451 214.338 54.7323C216.058 53.0121 218.101 52.1519 220.466 52.1519C222.831 52.1519 224.82 53.0121 226.433 54.7323C228.153 56.3451 229.014 58.3341 229.014 60.6995V166.496C229.014 168.861 228.153 170.904 226.433 172.624C224.82 174.237 222.831 175.043 220.466 175.043C218.101 175.043 216.058 174.237 214.338 172.624C212.725 170.904 211.918 168.861 211.918 166.496ZM245.835 133.273C245.835 124.134 248.093 116.017 252.609 108.921C257.232 101.824 263.36 96.7712 270.994 93.7607C276.155 91.6104 281.531 90.5353 287.121 90.5353H287.605C295.239 90.6428 301.959 92.4168 307.765 95.8573C313.57 99.2978 318.14 103.867 321.473 109.566C323.623 113.114 325.075 116.877 325.827 120.855C326.365 123.543 326.634 125.854 326.634 127.79C326.634 128.972 326.526 130.639 326.311 132.789C325.451 137.842 322.602 140.369 317.764 140.369H262.93C264.328 146.282 267.392 151.013 272.123 154.561C276.854 158.002 282.713 159.722 289.702 159.722C297.013 159.722 303.464 157.464 309.055 152.948C310.668 151.658 312.495 150.906 314.538 150.691H315.022C316.742 150.691 318.194 151.121 319.376 151.981C321.419 153.809 322.602 155.851 322.924 158.109C323.247 160.26 322.172 162.625 319.699 165.205C311.743 172.194 301.69 175.688 289.541 175.688C276.316 175.688 265.726 171.71 257.77 163.754C249.813 155.583 245.835 145.422 245.835 133.273ZM262.93 125.693H309.861C309.324 119.887 307.012 115.264 302.926 111.823C298.948 108.275 293.841 106.501 287.605 106.501C281.477 106.501 276.155 108.275 271.639 111.823C267.231 115.264 264.328 119.887 262.93 125.693ZM340.269 166.496V99.7279C340.269 97.3625 341.075 95.3735 342.688 93.7607C344.301 92.0405 346.29 91.1804 348.655 91.1804C351.128 91.1804 353.171 92.0405 354.784 93.7607C356.504 95.3735 357.364 97.3625 357.364 99.7279V102.308C362.955 94.4596 371.395 90.5353 382.684 90.5353C391.931 90.5353 399.242 93.7607 404.618 100.212C410.101 106.555 412.843 115.156 412.843 126.016V166.334C412.843 168.915 412.036 171.011 410.423 172.624C408.811 174.237 406.768 175.043 404.295 175.043C401.822 175.043 399.779 174.237 398.167 172.624C396.554 171.011 395.747 168.915 395.747 166.334V127.628C395.747 121.392 394.296 116.554 391.393 113.114C388.598 109.566 384.566 107.792 379.297 107.792C364.675 107.792 357.364 117.361 357.364 136.498V166.496C357.364 168.968 356.504 171.011 354.784 172.624C353.171 174.237 351.128 175.043 348.655 175.043C346.29 175.043 344.301 174.237 342.688 172.624C341.075 171.011 340.269 168.968 340.269 166.496ZM430.435 72.4725C428.177 70.1072 427.049 67.2042 427.049 63.7637C427.049 60.2157 428.177 57.3127 430.435 55.0549C432.801 52.6895 435.757 51.5068 439.305 51.5068C442.853 51.5068 445.81 52.6895 448.175 55.0549C450.541 57.3127 451.724 60.2157 451.724 63.7637C451.724 67.2042 450.541 70.1072 448.175 72.4725C445.81 74.7304 442.853 75.8593 439.305 75.8593C435.757 75.8593 432.801 74.7304 430.435 72.4725ZM430.758 166.496V99.8892C430.758 97.5238 431.564 95.481 433.177 93.7607C434.897 92.0405 436.94 91.1804 439.305 91.1804C441.671 91.1804 443.66 92.0405 445.273 93.7607C446.993 95.481 447.853 97.5238 447.853 99.8892V166.496C447.853 168.861 446.993 170.904 445.273 172.624C443.66 174.237 441.671 175.043 439.305 175.043C436.94 175.043 434.897 174.237 433.177 172.624C431.564 170.904 430.758 168.861 430.758 166.496ZM468.031 154.884C464.376 148.325 462.548 141.068 462.548 133.112C462.548 125.156 464.376 117.952 468.031 111.501C471.794 104.942 476.955 99.8354 483.513 96.1799C490.179 92.4168 497.598 90.5353 505.769 90.5353C513.833 90.5353 521.198 92.4168 527.864 96.1799C534.53 99.8354 539.745 104.942 543.508 111.501C547.271 118.059 549.152 125.263 549.152 133.112C549.152 141.068 547.271 148.325 543.508 154.884C539.745 161.335 534.53 166.442 527.864 170.205C521.305 173.86 513.941 175.688 505.769 175.688C497.706 175.688 490.341 173.86 483.675 170.205C477.116 166.442 471.902 161.335 468.031 154.884ZM487.223 114.888C482.277 119.726 479.804 125.801 479.804 133.112C479.804 140.423 482.277 146.551 487.223 151.497C492.276 156.335 498.458 158.754 505.769 158.754C513.08 158.754 519.263 156.335 524.316 151.497C529.369 146.444 531.896 140.315 531.896 133.112C531.896 125.801 529.369 119.726 524.316 114.888C519.37 109.942 513.188 107.469 505.769 107.469C498.351 107.469 492.169 109.942 487.223 114.888Z" fill="black"/>
<path d="M320.637 33.0159L288.621 8.85714L257.066 32.5554" stroke="url(#paint0_linear_325_682)" stroke-width="17.4877" stroke-linecap="round" stroke-linejoin="round"/>
<path d="M320.637 70.0159L288.621 45.8571L257.066 69.5554" stroke="url(#paint1_linear_325_682)" stroke-width="17.4877" stroke-linecap="round" stroke-linejoin="round"/>
<path d="M562.898 108.062V95.3435H567.195C568.189 95.3435 569.004 95.5132 569.642 95.8527C570.279 96.188 570.751 96.6497 571.058 97.2375C571.364 97.8254 571.517 98.4941 571.517 99.2434C571.517 99.9928 571.364 100.657 571.058 101.237C570.751 101.816 570.281 102.272 569.648 102.603C569.014 102.93 568.205 103.094 567.22 103.094H563.742V101.703H567.17C567.849 101.703 568.396 101.603 568.81 101.405C569.228 101.206 569.53 100.924 569.716 100.56C569.907 100.191 570.002 99.7526 570.002 99.2434C570.002 98.7342 569.907 98.2891 569.716 97.9082C569.526 97.5273 569.221 97.2334 568.803 97.0264C568.385 96.8153 567.832 96.7097 567.145 96.7097H564.438V108.062H562.898ZM568.884 102.348L572.014 108.062H570.225L567.145 102.348H568.884ZM574.953 108.161C574.647 108.161 574.384 108.051 574.164 107.832C573.945 107.613 573.835 107.35 573.835 107.043C573.835 106.737 573.945 106.474 574.164 106.255C574.384 106.035 574.647 105.925 574.953 105.925C575.259 105.925 575.522 106.035 575.742 106.255C575.961 106.474 576.071 106.737 576.071 107.043C576.071 107.246 576.019 107.432 575.915 107.602C575.816 107.772 575.682 107.909 575.512 108.012C575.346 108.111 575.16 108.161 574.953 108.161Z" fill="black"/>
<defs>
<linearGradient id="paint0_linear_325_682" x1="308" y1="33" x2="262" y2="38" gradientUnits="userSpaceOnUse">
<stop stop-color="#002EE5"/>
<stop offset="1" stop-color="#65E3C3"/>
</linearGradient>
<linearGradient id="paint1_linear_325_682" x1="308" y1="70" x2="262" y2="75" gradientUnits="userSpaceOnUse">
<stop stop-color="#002EE5"/>
<stop offset="1" stop-color="#65E3C3"/>
</linearGradient>
</defs>
</svg>
